<svg width="36" height="40" viewBox="0 0 36 40" fill="none" xmlns="http://www.w3.org/2000/svg">
<path d="M13.1589 19.7959C15.5771 21.3452 18.5501 21.5127 21.3138 20.246C21.9 19.9738 22.1617 19.2829 21.8896 18.6967C21.6174 18.1105 20.9265 17.8487 20.3402 18.1209C18.3198 19.0526 16.1633 18.9479 14.4255 17.8278C12.7297 16.7391 11.7142 14.8966 11.7142 12.8867C11.7142 9.65193 14.3418 7.02435 17.5766 7.02435C20.8113 7.02435 23.4389 9.65193 23.4389 12.8867C23.4389 13.5357 22.9155 14.0592 22.2664 14.0592C21.6802 14.0592 21.1254 13.609 21.094 12.9076C21.094 12.8972 21.094 12.8972 21.094 12.8867C21.094 10.95 19.5132 9.36928 17.5766 9.36928C15.6399 9.36928 14.0591 10.95 14.0591 12.8867C14.0591 14.8234 15.6399 16.4041 17.5766 16.4041C18.4768 16.4041 19.2934 16.0691 19.9215 15.5038C20.5391 16.0586 21.3661 16.4041 22.2664 16.4041C24.2031 16.4041 25.7838 14.8234 25.7838 12.8867C25.7838 8.36431 22.1094 4.67941 17.587 4.67941C13.0646 4.67941 9.39021 8.35384 9.39021 12.8867C9.36927 15.6922 10.793 18.2779 13.1589 19.7959ZM17.5766 14.0592C16.9275 14.0592 16.4041 13.5357 16.4041 12.8867C16.4041 12.2376 16.9275 11.7142 17.5766 11.7142C18.1733 11.7142 18.6757 12.1644 18.7385 12.7506C18.7176 12.8553 18.7176 12.9704 18.7281 13.0751C18.6443 13.6299 18.1628 14.0592 17.5766 14.0592Z" fill="white"/>
<path d="M35.1531 15.3886C35.1531 15.0851 35.0275 14.7815 34.8076 14.5616L30.4632 10.2172V1.17247C30.4632 0.523423 29.9398 0 29.2908 0H5.86234C5.21329 0 4.68987 0.523423 4.68987 1.17247V10.2172L0.345459 14.5616L0.334991 14.5721C0.115153 14.8024 0 15.0955 0 15.3886V36.4826C0 38.4193 1.58074 40 3.5174 40H31.6357C33.5724 40 35.1531 38.4193 35.1531 36.4826V15.3886ZM32.3266 15.3886L30.4737 17.2416V13.5253L32.3266 15.3886ZM28.1183 2.34494V10.6988V19.5865L21.7744 25.9304H13.3682L7.02434 19.5865V10.6988V2.34494H28.1183ZM4.68987 17.2416L2.82649 15.3886L4.6794 13.5357V17.2416H4.68987ZM2.34494 35.9906V18.2151L11.2327 27.1029L2.34494 35.9906ZM3.99895 37.6551L13.3682 28.2858H21.7744L31.1437 37.6551H3.99895ZM32.8082 35.9906L23.9204 27.1029L32.8082 18.2151V35.9906Z" fill="white"/>
</svg>
