<svg width="27" height="38" viewBox="0 0 27 38" fill="none" xmlns="http://www.w3.org/2000/svg">
<path d="M13.132 0C5.88708 0 0 5.88708 0 13.132C0 15.5762 0.674561 17.9678 1.96236 20.0353L12.3874 36.838C12.5889 37.1622 12.9393 37.3549 13.316 37.3549H13.3248C13.7102 37.3549 14.0607 37.1534 14.2534 36.8205L24.4156 19.8601C25.6246 17.8364 26.2641 15.5061 26.2641 13.132C26.2641 5.88708 20.377 0 13.132 0ZM22.5321 18.7388L13.2985 34.1573L3.81959 18.8877C2.75081 17.1619 2.17261 15.1732 2.17261 13.132C2.17261 7.09603 7.09603 2.17261 13.132 2.17261C19.168 2.17261 24.0827 7.09603 24.0827 13.132C24.0827 15.1119 23.5395 17.048 22.5321 18.7388Z" fill="white"/>
<path d="M13.132 6.5704C9.51394 6.5704 6.5704 9.51394 6.5704 13.132C6.5704 16.7326 9.47014 19.7024 13.132 19.7024C16.8465 19.7024 19.7024 16.6976 19.7024 13.132C19.7024 9.51394 16.7501 6.5704 13.132 6.5704ZM13.132 17.5211C10.7054 17.5211 8.74302 15.5499 8.74302 13.132C8.74302 10.7141 10.7229 8.74302 13.132 8.74302C15.5499 8.74302 17.5211 10.7229 17.5211 13.132C17.5211 15.5149 15.5938 17.5211 13.132 17.5211Z" fill="white"/>
</svg>
