<svg width="40" height="40" viewBox="0 0 40 40" fill="none" xmlns="http://www.w3.org/2000/svg">
<path d="M38.9787 29.4989L34.0061 24.5287C32.634 23.1573 30.4056 23.1573 29.0335 24.5287L26.7741 26.787C25.7322 27.8284 24.0402 27.8284 23.0086 26.787L13.2078 16.9806C12.1658 15.9392 12.1658 14.2584 13.2078 13.2169C13.5689 12.856 14.6212 11.8042 15.4671 10.9587C16.8289 9.59753 16.8496 7.37022 15.4671 5.98846L10.4842 1.02858C9.11213 -0.342861 6.88374 -0.342861 5.51164 1.02858C4.4903 2.03912 4.16016 2.35878 3.70623 2.8228C-1.23541 7.76206 -1.23541 15.8051 3.70623 20.7547L19.2327 36.284C24.1847 41.2335 32.211 41.2438 37.1733 36.284L38.9787 34.4794C40.3404 33.0977 40.3404 30.8704 38.9787 29.4989ZM32.3451 26.1786L37.3177 31.1488C37.7716 31.6025 37.7716 32.3449 37.3177 32.8089L36.4924 33.6339L29.8588 27.0035L30.6841 26.1786C31.138 25.7249 31.8808 25.7249 32.3451 26.1786ZM8.82326 2.68875L13.7959 7.64863C14.2498 8.10234 14.2498 8.84478 13.7959 9.3088L12.9705 10.1337L6.34728 3.50337L7.17261 2.68875C7.62654 2.22473 8.36933 2.22473 8.82326 2.68875ZM20.8834 34.6135L5.35689 19.0842C1.52943 15.2689 1.3231 9.25724 4.71726 5.18416L11.3302 11.7939C9.59701 13.7634 9.66922 16.7641 11.5468 18.6408L21.3476 28.4471C23.2252 30.3239 26.2274 30.4063 28.1978 28.6637L34.8108 35.2734C30.7357 38.6453 24.7418 38.47 20.8834 34.6135Z" fill="white"/>
</svg>
